<?xml version="1.0" encoding="UTF-8" standalone="no" ?>
<svg width="171" height="269" viewBox="0 0 171 269" fill="none" xmlns="http://www.w3.org/2000/svg">
<path d="M88.3587 0.00320514C70.3441 0.0536343 52.8519 6.29681 38.612 17.7585C24.3719 29.2204 14.1849 45.256 9.6403 63.3635C5.09572 81.4711 6.4492 100.632 13.4896 117.857C20.53 135.081 32.8612 149.401 48.5594 158.581C48.7263 155.053 48.9115 151.564 49.1152 148.116C39.6205 141.743 31.6803 133.167 25.9199 123.062C19.41 111.606 15.9325 98.5642 15.8402 85.2609C15.7479 71.9577 19.0441 58.8657 25.3945 47.3126C31.7448 35.7595 40.9234 26.1563 51.9995 19.4768C63.0756 12.7973 75.6553 9.27923 88.4626 9.27923C101.27 9.27923 113.85 12.7973 124.926 19.4768C136.001 26.1563 145.18 35.7595 151.531 47.3126C157.881 58.8657 161.177 71.9577 161.084 85.2609C160.993 98.5642 157.515 111.606 151.005 123.062C145.094 133.432 136.889 142.188 127.069 148.606C127.273 152.037 127.461 155.501 127.634 159.001C143.521 149.959 156.059 135.679 163.268 118.415C170.476 101.151 171.946 81.8844 167.443 63.6565C162.941 45.4287 152.723 29.2771 138.402 17.7506C124.083 6.22405 106.475 -0.0211081 88.3587 0.000605748V0.00320514Z" fill="url(#paint0_linear_321_881)"/>
<path d="M7.00098 261.501C80.001 191.334 176.001 33.0005 84.001 33.0004C16.5251 33.0004 74.001 171.334 157.001 261.501" stroke="url(#paint1_linear_321_881)" stroke-width="20"/>
<path d="M14 261.5C87 191.333 183 33 91 33C23.5241 33 81 171.333 164 261.5" stroke="white" stroke-width="10"/>
<defs>
<linearGradient id="paint0_linear_321_881" x1="88.5019" y1="246.928" x2="88.5019" y2="80.4546" gradientUnits="userSpaceOnUse">
<stop stop-color="#FC6611"/>
<stop offset="1" stop-color="#F155EB"/>
</linearGradient>
<linearGradient id="paint1_linear_321_881" x1="82.001" y1="33.0004" x2="82.001" y2="261.501" gradientUnits="userSpaceOnUse">
<stop stop-color="#CF2FBF"/>
<stop offset="1" stop-color="#C1297E" stop-opacity="0.2"/>
</linearGradient>
</defs>
</svg>
